<svg width="40" height="40" viewBox="0 0 40 40" fill="none" xmlns="http://www.w3.org/2000/svg">
  <!-- White Background -->
  <rect width="40" height="40" rx="8" fill="white"/>

  <!-- Icon -->
  <svg x="8" y="8" width="24" height="24" viewBox="0 0 24 24" fill="none">
    <path
      d="M4 19.5V4.5C4 3.67157 4.67157 3 5.5 3H10.5C11.3284 3 12 3.67157 12 4.5V19.5C12 20.3284 11.3284 21 10.5 21H5.5C4.67157 21 4 20.3284 4 19.5Z"
      stroke="black"
      stroke-width="1.5"
      stroke-linecap="round"
      stroke-linejoin="round"
    />
    <path
      d="M12 4.5C12 3.67157 12.6716 3 13.5 3H18.5C19.3284 3 20 3.67157 20 4.5V19.5C20 20.3284 19.3284 21 18.5 21H13.5C12.6716 21 12 20.3284 12 19.5V4.5Z"
      stroke="black"
      stroke-width="1.5"
      stroke-linecap="round"
      stroke-linejoin="round"
    />
    <path
      d="M12 4.5V19.5"
      stroke="black"
      stroke-width="1.5"
      stroke-linecap="round"
      stroke-linejoin="round"
    />
  </svg>
</svg>